<?xml version="1.0" encoding="UTF-8" standalone="no"?><!DOCTYPE svg PUBLIC "-//W3C//DTD SVG 1.1//EN" "http://www.w3.org/Graphics/SVG/1.1/DTD/svg11.dtd"><svg width="100%" height="100%" viewBox="0 0 121 78" version="1.1" xmlns="http://www.w3.org/2000/svg" xmlns:xlink="http://www.w3.org/1999/xlink" xml:space="preserve" xmlns:serif="http://www.serif.com/" style="fill-rule:evenodd;clip-rule:evenodd;stroke-linejoin:round;stroke-miterlimit:1.41421;"><g><path d="M77.544,65.24c-2.711,6.996 -9.509,11.963 -17.458,11.963c-7.949,0 -14.747,-4.967 -17.458,-11.963l34.916,0Zm1.257,-8.361l-37.429,0l0,-8.262l37.429,0l0,8.262Zm0,-16.623l-37.429,0l0,-8.263l37.429,0l0,8.263Zm-37.429,-16.624l0,-4.903c0,-10.328 8.385,-18.714 18.714,-18.714c10.329,0 18.715,8.386 18.715,18.714l0,4.903l-37.429,0Z" style="fill:#ffd200;"/><path d="M36.796,57.441c0,0 0,0.852 0,0.852l-0.02,0.002c-0.446,9.719 -8.478,17.472 -18.306,17.472c-10.115,0 -18.327,-8.211 -18.327,-18.326c0,-5.43 2.367,-10.311 6.124,-13.668l30.529,-31.583l0,45.251Z" style="fill:#ffd200;"/><path d="M83.377,57.441c0,0 0,0.852 0,0.852l0.019,0.002c0.447,9.719 8.478,17.472 18.307,17.472c10.114,0 18.326,-8.211 18.326,-18.326c0,-5.43 -2.367,-10.311 -6.124,-13.668l-30.528,-31.583l0,45.251Z" style="fill:#ffd200;"/></g></svg>