<?xml version="1.0" encoding="UTF-8" standalone="no"?><!DOCTYPE svg PUBLIC "-//W3C//DTD SVG 1.1//EN" "http://www.w3.org/Graphics/SVG/1.1/DTD/svg11.dtd"><svg width="100%" height="100%" viewBox="0 0 121 79" version="1.1" xmlns="http://www.w3.org/2000/svg" xmlns:xlink="http://www.w3.org/1999/xlink" xml:space="preserve" xmlns:serif="http://www.serif.com/" style="fill-rule:evenodd;clip-rule:evenodd;stroke-linejoin:round;stroke-miterlimit:1.41421;"><g><path d="M77.544,66.137c-2.711,6.996 -9.509,11.962 -17.458,11.962c-7.949,0 -14.747,-4.966 -17.458,-11.962l34.916,0Zm1.257,-8.362l-37.429,0l0,-8.262l37.429,0l0,8.262Zm0,-16.623l-37.429,0l0,-8.262l37.429,0l0,8.262Zm-37.429,-16.623l0,-4.903c0,-10.329 8.385,-18.714 18.714,-18.714c10.329,0 18.715,8.385 18.715,18.714l0,4.903l-37.429,0Z" style="fill:#fff;"/><path d="M36.796,58.338c0,0 0,0.852 0,0.852l-0.02,0.001c-0.446,9.719 -8.478,17.473 -18.306,17.473c-10.115,0 -18.327,-8.212 -18.327,-18.326c0,-5.43 2.367,-10.312 6.124,-13.669l30.529,-31.582l0,45.251Z" style="fill:#fff;"/><path d="M83.377,58.338c0,0 0,0.852 0,0.852l0.019,0.001c0.447,9.719 8.478,17.473 18.307,17.473c10.114,0 18.326,-8.212 18.326,-18.326c0,-5.43 -2.367,-10.312 -6.124,-13.669l-30.528,-31.582l0,45.251Z" style="fill:#fff;"/></g></svg>