<?xml version="1.0" encoding="UTF-8" standalone="no"?><!DOCTYPE svg PUBLIC "-//W3C//DTD SVG 1.1//EN" "http://www.w3.org/Graphics/SVG/1.1/DTD/svg11.dtd"><svg width="100%" height="100%" viewBox="0 0 164 31" version="1.1" xmlns="http://www.w3.org/2000/svg" xmlns:xlink="http://www.w3.org/1999/xlink" xml:space="preserve" xmlns:serif="http://www.serif.com/" style="fill-rule:evenodd;clip-rule:evenodd;stroke-linejoin:round;stroke-miterlimit:1.41421;"><g><g transform="matrix(2.49698,0,0,2.49698,-1380.74,-841.546)"><path d="M574.354,340.756c1.56,0 2.31,0.972 2.31,2.346c0,1.356 -0.75,2.346 -2.31,2.346l-1.548,0l0,-4.692l1.548,0Zm-3.552,6.546l3.594,0c2.628,0 4.362,-1.668 4.362,-4.2c0,-2.532 -1.734,-4.2 -4.362,-4.2l-3.594,0l0,8.4Z" style="fill:#fff;fill-rule:nonzero;"/><path d="M582.508,343.006c0.738,0 1.26,0.57 1.26,1.35c0,0.78 -0.522,1.35 -1.26,1.35c-0.75,0 -1.254,-0.582 -1.254,-1.35c0,-0.768 0.504,-1.35 1.254,-1.35Zm1.242,-1.59l0,0.636c-0.354,-0.462 -0.894,-0.798 -1.686,-0.798c-1.578,0 -2.742,1.368 -2.742,3.096c0,1.74 1.164,3.102 2.736,3.102c0.798,0 1.338,-0.324 1.692,-0.786l0,0.636l1.818,0l0,-5.886l-1.818,0Z" style="fill:#fff;fill-rule:nonzero;"/><path d="M589.156,341.416l0,-1.716l-1.878,0l0,1.716l-1.098,0l0,1.662l1.098,0l0,1.962c0,1.476 0.714,2.412 2.292,2.412c0.948,0 1.536,-0.264 2.088,-0.648l-0.648,-1.464c-0.294,0.174 -0.672,0.366 -1.02,0.366c-0.474,0 -0.834,-0.228 -0.834,-0.906l0,-1.722l2.01,0l0,-1.662l-2.01,0Z" style="fill:#fff;fill-rule:nonzero;"/><path d="M594.886,343.006c0.738,0 1.26,0.57 1.26,1.35c0,0.78 -0.522,1.35 -1.26,1.35c-0.75,0 -1.254,-0.582 -1.254,-1.35c0,-0.768 0.504,-1.35 1.254,-1.35Zm1.242,-1.59l0,0.636c-0.354,-0.462 -0.894,-0.798 -1.686,-0.798c-1.578,0 -2.742,1.368 -2.742,3.096c0,1.74 1.164,3.102 2.736,3.102c0.798,0 1.338,-0.324 1.692,-0.786l0,0.636l1.818,0l0,-5.886l-1.818,0Z" style="fill:#fff;fill-rule:nonzero;"/><path d="M602.068,343.006c0.756,0 1.26,0.582 1.26,1.35c0,0.768 -0.504,1.35 -1.26,1.35c-0.738,0 -1.254,-0.57 -1.254,-1.35c0,-0.78 0.516,-1.35 1.254,-1.35Zm0.45,-1.752c-0.756,0 -1.272,0.3 -1.626,0.726l0,-3.318l-1.872,0l0,8.64l1.812,0l0,-0.63c0.354,0.462 0.888,0.78 1.686,0.78c1.572,0 2.742,-1.362 2.742,-3.102c0,-1.728 -1.17,-3.096 -2.742,-3.096Z" style="fill:#fff;fill-rule:nonzero;"/><path d="M608.86,342.85c0.546,0 0.912,0.312 1.062,0.9l-2.142,0c0.144,-0.582 0.498,-0.9 1.08,-0.9Zm-0.006,-1.596c-1.788,0 -3.018,1.284 -3.018,3.138c0,1.836 1.254,3.06 3.102,3.06c1.086,0 1.98,-0.348 2.592,-0.96l-1.212,-1.128c-0.372,0.336 -0.846,0.516 -1.284,0.516c-0.648,0 -1.104,-0.3 -1.26,-0.942l3.99,0c0.024,-0.126 0.036,-0.39 0.036,-0.582c-0.006,-1.842 -1.2,-3.102 -2.946,-3.102Z" style="fill:#fff;fill-rule:nonzero;"/><path d="M615.4,342.85c0.546,0 0.912,0.312 1.062,0.9l-2.142,0c0.144,-0.582 0.498,-0.9 1.08,-0.9Zm-0.006,-1.596c-1.788,0 -3.018,1.284 -3.018,3.138c0,1.836 1.254,3.06 3.102,3.06c1.086,0 1.98,-0.348 2.592,-0.96l-1.212,-1.128c-0.372,0.336 -0.846,0.516 -1.284,0.516c-0.648,0 -1.104,-0.3 -1.26,-0.942l3.99,0c0.024,-0.126 0.036,-0.39 0.036,-0.582c-0.006,-1.842 -1.2,-3.102 -2.946,-3.102Z" style="fill:#fff;fill-rule:nonzero;"/></g><path d="M31.07,15.426c0,8.451 -6.861,15.312 -15.312,15.312c-8.45,0 -15.312,-6.861 -15.312,-15.312c0,-8.451 6.862,-15.312 15.312,-15.312c8.451,0 15.312,6.861 15.312,15.312Zm-12.3,3.472c-0.467,1.207 -1.64,2.064 -3.012,2.064c-1.371,0 -2.544,-0.857 -3.012,-2.064l6.024,0Zm-7.03,-1.345l0,0.147l-0.003,0c-0.077,1.677 -1.463,3.014 -3.159,3.014c-1.745,0 -3.161,-1.416 -3.161,-3.161c0,-0.937 0.408,-1.779 1.056,-2.359l5.267,-5.449l0,7.808Zm8.037,0l0,0.147l0.003,0c0.077,1.677 1.463,3.014 3.159,3.014c1.745,0 3.161,-1.416 3.161,-3.161c0,-0.937 -0.408,-1.779 -1.056,-2.359l-5.267,-5.449l0,7.808Zm-0.79,-0.097l0,-1.426l-6.457,0l0,1.426l6.457,0Zm0,-2.868l0,-1.426l-6.457,0l0,1.426l6.457,0Zm0,-2.868l0,-0.846c0,-1.782 -1.447,-3.229 -3.229,-3.229c-1.782,0 -3.228,1.447 -3.228,3.229l0,0.846l6.457,0Z" style="fill:#fff;"/></g></svg>