<?xml version="1.0" encoding="UTF-8" standalone="no"?><!DOCTYPE svg PUBLIC "-//W3C//DTD SVG 1.1//EN" "http://www.w3.org/Graphics/SVG/1.1/DTD/svg11.dtd"><svg width="100%" height="100%" viewBox="0 0 147 29" version="1.1" xmlns="http://www.w3.org/2000/svg" xmlns:xlink="http://www.w3.org/1999/xlink" xml:space="preserve" xmlns:serif="http://www.serif.com/" style="fill-rule:evenodd;clip-rule:evenodd;stroke-linejoin:round;stroke-miterlimit:1.41421;"><g><text x="38.83px" y="23.505px" style="font-family:'MarkOT-Heavy', 'Mark OT';font-weight:800;font-size:27.373px;fill:#fff;">D<tspan x="58.935px 74.647px 86.623px 102.335px 118.047px 132.418px " y="23.505px 23.505px 23.505px 23.505px 23.505px 23.505px ">atabee</tspan></text><g><path d="M28.266,14.155c0,7.721 -6.268,13.988 -13.988,13.988c-7.72,0 -13.988,-6.267 -13.988,-13.988c0,-7.72 6.268,-13.988 13.988,-13.988c7.72,0 13.988,6.268 13.988,13.988Zm-17.776,3.285l-0.003,0c-0.073,1.58 -1.379,2.841 -2.977,2.841c-1.645,0 -2.981,-1.335 -2.981,-2.98c0,-0.883 0.385,-1.677 0.996,-2.223l4.965,-5.136l0,7.498Zm12.541,-2.362c0.611,0.546 0.996,1.34 0.996,2.223c0,1.645 -1.336,2.98 -2.981,2.98c-1.598,0 -2.905,-1.261 -2.977,-2.841l-0.003,0l0,-7.498l4.965,5.136Zm-5.914,2.146c-0.441,1.138 -1.546,1.945 -2.839,1.945c-1.293,0 -2.399,-0.807 -2.839,-1.945l5.678,0Zm0.204,-1.36l0,-1.344l-6.087,0l0,1.344l6.087,0Zm0,-2.703l0,-1.344l-6.087,0l0,1.344l6.087,0Zm0,-2.704l0,-0.797c0,-1.68 -1.363,-3.044 -3.043,-3.044c-1.68,0 -3.044,1.364 -3.044,3.044l0,0.797l6.087,0Z" style="fill:#fff;"/></g></g></svg>